ffmpeg started on 2025-04-16 at 10:39:03
Report written to "D:\Convert\FFMetrics\reports\psnr_report-2.txt"
Log level: 32
Command line:
ffmpeg -hide_banner -nostdin -r 24000/1001 -i "G:\\\xc0\xed\xe8\xec\xe5\\\xce\xed\xe3\xee\xe8\xed\xe3\xe8\\!_37_\xc7\xe8\xec\xe0_2025\\JamClub\\\xcf\xee\xe4\xed\xff\xf2\xe8\xe5 \xf3\xf0\xee\xe2\xed\xff \xe2 \xee\xe4\xe8\xed\xee\xf7\xea\xf3\\\xd2\xc2-2\\JamClub_Ore_dake_Level_Up_na_Ken_Season_2_05_1080p_HEVC.mkv" -i "G:\\\xc0\xed\xe8\xec\xe5\\\xce\xed\xe3\xee\xe8\xed\xe3\xe8\\!_37_\xc7\xe8\xec\xe0_2025\\JamClub\\\xcf\xee\xe4\xed\xff\xf2\xe8\xe5 \xf3\xf0\xee\xe2\xed\xff \xe2 \xee\xe4\xe8\xed\xee\xf7\xea\xf3\\\xd2\xc2-2\\JamClub_Ore_dake_Level_Up_na_Ken_Season_2_05_1080p.mp4" -lavfi "[0:v]fps=24000/1001[main];[1:v]fps=24000/1001[ref];[main][ref]psnr=stats_file='D\\:/Convert/FFMetrics/logs/psnr_logfile-2.txt'" -f null -
Input #0, matroska,webm, from 'G:\Аниме\Онгоинги\!_37_Зима_2025\JamClub\Поднятие уровня в одиночку\ТВ-2\JamClub_Ore_dake_Level_Up_na_Ken_Season_2_05_1080p_HEVC.mkv':
  Metadata:
    COMPATIBLE_BRANDS: isomiso2avc1mp41
    MAJOR_BRAND     : isom
    MINOR_VERSION   : 512
    ENCODER         : Lavf61.7.100
  Duration: 00:24:03.91, start: -0.001000, bitrate: 1353 kb/s
  Stream #0:0: Video: hevc (Main 10), yuv420p10le(tv, bt709, progressive), 1920x1080 [SAR 1:1 DAR 16:9], 23.98 fps, 23.98 tbr, 1k tbn (default)
      Metadata:
        HANDLER_NAME    : VideoHandler
        VENDOR_ID       : [0][0][0][0]
        ENCODER         : Lavc61.19.100 libx265
        BPS             : 1156473
        DURATION        : 00:24:02.148708333
        NUMBER_OF_FRAMES: 34577
        NUMBER_OF_BYTES : 208475672
        _STATISTICS_WRITING_APP: mkvpropedit v66.0.0 ('Josie') 64-bit
        _STATISTICS_WRITING_DATE_UTC: 2025-04-12 11:58:04
        _STATISTICS_TAGS: BPS DURATION NUMBER_OF_FRAMES NUMBER_OF_BYTES
  Stream #0:1(eng): Audio: aac (LC), 48000 Hz, stereo, fltp (default)
      Metadata:
        HANDLER_NAME    : SoundHandler
        VENDOR_ID       : [0][0][0][0]
        ENCODER         : Lavc61.19.100 aac
        BPS             : 194475
        DURATION        : 00:24:03.864000000
        NUMBER_OF_FRAMES: 67682
        NUMBER_OF_BYTES : 35099502
        _STATISTICS_WRITING_APP: mkvpropedit v66.0.0 ('Josie') 64-bit
        _STATISTICS_WRITING_DATE_UTC: 2025-04-12 11:58:04
        _STATISTICS_TAGS: BPS DURATION NUMBER_OF_FRAMES NUMBER_OF_BYTES
Input #1, mov,mp4,m4a,3gp,3g2,mj2, from 'G:\Аниме\Онгоинги\!_37_Зима_2025\JamClub\Поднятие уровня в одиночку\ТВ-2\JamClub_Ore_dake_Level_Up_na_Ken_Season_2_05_1080p.mp4':
  Metadata:
    major_brand     : isom
    minor_version   : 512
    compatible_brands: isomiso2avc1mp41
    encoder         : Lavf60.16.100
  Duration: 00:24:03.88, start: 0.000000, bitrate: 4944 kb/s
  Stream #1:0[0x1](und): Video: h264 (High) (avc1 / 0x31637661), yuv420p(progressive), 1920x1080 [SAR 1:1 DAR 16:9], 4752 kb/s, 23.98 fps, 23.98 tbr, 90k tbn (default)
      Metadata:
        handler_name    : VideoHandler
        vendor_id       : [0][0][0][0]
  Stream #1:1[0x2](eng): Audio: aac (LC) (mp4a / 0x6134706D), 48000 Hz, stereo, fltp, 191 kb/s (default)
      Metadata:
        handler_name    : SoundHandler
        vendor_id       : [0][0][0][0]
Stream mapping:
  Stream #0:0 (hevc) -> fps:default
  Stream #1:0 (h264) -> fps:default
  psnr:default -> Stream #0:0 (wrapped_avframe)
  Stream #0:1 -> #0:1 (aac (native) -> pcm_s16le (native))
Output #0, null, to 'pipe:':
  Metadata:
    COMPATIBLE_BRANDS: isomiso2avc1mp41
    MAJOR_BRAND     : isom
    MINOR_VERSION   : 512
    encoder         : Lavf61.7.100
  Stream #0:0: Video: wrapped_avframe, yuv420p10le(tv, bt709, progressive), 1920x1080 [SAR 1:1 DAR 16:9], q=2-31, 200 kb/s, 23.98 fps, 23.98 tbn
      Metadata:
        encoder         : Lavc61.19.100 wrapped_avframe
  Stream #0:1(eng): Audio: pcm_s16le, 48000 Hz, stereo, s16, 1536 kb/s (default)
      Metadata:
        HANDLER_NAME    : SoundHandler
        VENDOR_ID       : [0][0][0][0]
        _STATISTICS_TAGS: BPS DURATION NUMBER_OF_FRAMES NUMBER_OF_BYTES
        BPS             : 194475
        DURATION        : 00:24:03.864000000
        NUMBER_OF_FRAMES: 67682
        NUMBER_OF_BYTES : 35099502
        _STATISTICS_WRITING_APP: mkvpropedit v66.0.0 ('Josie') 64-bit
        _STATISTICS_WRITING_DATE_UTC: 2025-04-12 11:58:04
        encoder         : Lavc61.19.100 pcm_s16le
frame=  104 fps=0.0 q=-0.0 size=N/A time=00:00:04.33 bitrate=N/A speed=8.43x    frame=  256 fps=246 q=-0.0 size=N/A time=00:00:10.67 bitrate=N/A speed=10.3x    frame=  434 fps=280 q=-0.0 size=N/A time=00:00:18.10 bitrate=N/A speed=11.7x    frame=  631 fps=306 q=-0.0 size=N/A time=00:00:26.31 bitrate=N/A speed=12.8x    frame=  832 fps=323 q=-0.0 size=N/A time=00:00:34.70 bitrate=N/A speed=13.5x    frame= 1033 fps=333 q=-0.0 size=N/A time=00:00:43.08 bitrate=N/A speed=13.9x    frame= 1222 fps=338 q=-0.0 size=N/A time=00:00:50.96 bitrate=N/A speed=14.1x    frame= 1398 fps=338 q=-0.0 size=N/A time=00:00:58.30 bitrate=N/A speed=14.1x    frame= 1558 fps=336 q=-0.0 size=N/A time=00:01:04.98 bitrate=N/A speed=  14x    frame= 1724 fps=335 q=-0.0 size=N/A time=00:01:11.90 bitrate=N/A speed=  14x    frame= 1926 fps=339 q=-0.0 size=N/A time=00:01:20.33 bitrate=N/A speed=14.2x    frame= 2077 fps=336 q=-0.0 size=N/A time=00:01:26.62 bitrate=N/A speed=  14x    frame= 2252 fps=336 q=-0.0 size=N/A time=00:01:33.92 bitrate=N/A speed=  14x    frame= 2392 fps=331 q=-0.0 size=N/A time=00:01:39.76 bitrate=N/A speed=13.8x    frame= 2566 fps=331 q=-0.0 size=N/A time=00:01:47.02 bitrate=N/A speed=13.8x    frame= 2791 fps=337 q=-0.0 size=N/A time=00:01:56.40 bitrate=N/A speed=14.1x    frame= 3010 fps=343 q=-0.0 size=N/A time=00:02:05.54 bitrate=N/A speed=14.3x    frame= 3251 fps=350 q=-0.0 size=N/A time=00:02:15.59 bitrate=N/A speed=14.6x    frame= 3486 fps=355 q=-0.0 size=N/A time=00:02:25.39 bitrate=N/A speed=14.8x    frame= 3726 fps=361 q=-0.0 size=N/A time=00:02:35.40 bitrate=N/A speed=  15x    frame= 3953 fps=365 q=-0.0 size=N/A time=00:02:44.87 bitrate=N/A speed=15.2x    frame= 4165 fps=366 q=-0.0 size=N/A time=00:02:53.71 bitrate=N/A speed=15.3x    frame= 4382 fps=369 q=-0.0 size=N/A time=00:03:02.76 bitrate=N/A speed=15.4x    frame= 4614 fps=372 q=-0.0 size=N/A time=00:03:12.44 bitrate=N/A speed=15.5x    frame= 4864 fps=377 q=-0.0 size=N/A time=00:03:22.86 bitrate=N/A speed=15.7x    frame= 5117 fps=381 q=-0.0 size=N/A time=00:03:33.42 bitrate=N/A speed=15.9x    frame= 5340 fps=383 q=-0.0 size=N/A time=00:03:42.72 bitrate=N/A speed=  16x    frame= 5548 fps=384 q=-0.0 size=N/A time=00:03:51.39 bitrate=N/A speed=  16x    frame= 5759 fps=385 q=-0.0 size=N/A time=00:04:00.19 bitrate=N/A speed=16.1x    frame= 5985 fps=386 q=-0.0 size=N/A time=00:04:09.62 bitrate=N/A speed=16.1x    frame= 6213 fps=388 q=-0.0 size=N/A time=00:04:19.13 bitrate=N/A speed=16.2x    frame= 6416 fps=389 q=-0.0 size=N/A time=00:04:27.64 bitrate=N/A speed=16.2x    frame= 6667 fps=391 q=-0.0 size=N/A time=00:04:38.06 bitrate=N/A speed=16.3x    frame= 6920 fps=394 q=-0.0 size=N/A time=00:04:48.62 bitrate=N/A speed=16.4x    frame= 7161 fps=397 q=-0.0 size=N/A time=00:04:58.67 bitrate=N/A speed=16.5x    frame= 7415 fps=399 q=-0.0 size=N/A time=00:05:09.26 bitrate=N/A speed=16.6x    frame= 7668 fps=402 q=-0.0 size=N/A time=00:05:19.81 bitrate=N/A speed=16.7x    frame= 7890 fps=402 q=-0.0 size=N/A time=00:05:29.07 bitrate=N/A speed=16.8x    frame= 8130 fps=404 q=-0.0 size=N/A time=00:05:39.08 bitrate=N/A speed=16.8x    frame= 8384 fps=406 q=-0.0 size=N/A time=00:05:49.68 bitrate=N/A speed=16.9x    frame= 8641 fps=408 q=-0.0 size=N/A time=00:06:00.40 bitrate=N/A speed=  17x    frame= 8905 fps=411 q=-0.0 size=N/A time=00:06:11.41 bitrate=N/A speed=17.1x    frame= 9152 fps=412 q=-0.0 size=N/A time=00:06:21.71 bitrate=N/A speed=17.2x    frame= 9404 fps=414 q=-0.0 size=N/A time=00:06:32.22 bitrate=N/A speed=17.3x    frame= 9655 fps=416 q=-0.0 size=N/A time=00:06:42.69 bitrate=N/A speed=17.3x    frame= 9894 fps=417 q=-0.0 size=N/A time=00:06:52.66 bitrate=N/A speed=17.4x    frame=10150 fps=419 q=-0.0 size=N/A time=00:07:03.33 bitrate=N/A speed=17.5x    frame=10360 fps=418 q=-0.0 size=N/A time=00:07:12.09 bitrate=N/A speed=17.4x    frame=10566 fps=418 q=-0.0 size=N/A time=00:07:20.69 bitrate=N/A speed=17.4x    frame=10771 fps=418 q=-0.0 size=N/A time=00:07:29.24 bitrate=N/A speed=17.4x    frame=10981 fps=417 q=-0.0 size=N/A time=00:07:37.99 bitrate=N/A speed=17.4x    frame=11198 fps=417 q=-0.0 size=N/A time=00:07:47.04 bitrate=N/A speed=17.4x    frame=11406 fps=417 q=-0.0 size=N/A time=00:07:55.72 bitrate=N/A speed=17.4x    frame=11622 fps=417 q=-0.0 size=N/A time=00:08:04.73 bitrate=N/A speed=17.4x    frame=11850 fps=418 q=-0.0 size=N/A time=00:08:14.24 bitrate=N/A speed=17.4x    frame=12072 fps=418 q=-0.0 size=N/A time=00:08:23.50 bitrate=N/A speed=17.4x    frame=12309 fps=419 q=-0.0 size=N/A time=00:08:33.38 bitrate=N/A speed=17.5x    frame=12562 fps=420 q=-0.0 size=N/A time=00:08:43.94 bitrate=N/A speed=17.5x    frame=12806 fps=421 q=-0.0 size=N/A time=00:08:54.11 bitrate=N/A speed=17.5x    frame=13067 fps=422 q=-0.0 size=N/A time=00:09:05.00 bitrate=N/A speed=17.6x    frame=13317 fps=423 q=-0.0 size=N/A time=00:09:15.42 bitrate=N/A speed=17.7x    frame=13554 fps=424 q=-0.0 size=N/A time=00:09:25.31 bitrate=N/A speed=17.7x    frame=13779 fps=424 q=-0.0 size=N/A time=00:09:34.69 bitrate=N/A speed=17.7x    frame=14011 fps=424 q=-0.0 size=N/A time=00:09:44.37 bitrate=N/A speed=17.7x    frame=14236 fps=425 q=-0.0 size=N/A time=00:09:53.75 bitrate=N/A speed=17.7x    frame=14462 fps=425 q=-0.0 size=N/A time=00:10:03.18 bitrate=N/A speed=17.7x    frame=14679 fps=425 q=-0.0 size=N/A time=00:10:12.23 bitrate=N/A speed=17.7x    frame=14912 fps=425 q=-0.0 size=N/A time=00:10:21.95 bitrate=N/A speed=17.7x    frame=15141 fps=425 q=-0.0 size=N/A time=00:10:31.50 bitrate=N/A speed=17.7x    frame=15368 fps=426 q=-0.0 size=N/A time=00:10:40.97 bitrate=N/A speed=17.8x    frame=15579 fps=425 q=-0.0 size=N/A time=00:10:49.77 bitrate=N/A speed=17.7x    frame=15813 fps=426 q=-0.0 size=N/A time=00:10:59.53 bitrate=N/A speed=17.8x    frame=16031 fps=426 q=-0.0 size=N/A time=00:11:08.62 bitrate=N/A speed=17.8x    frame=16251 fps=426 q=-0.0 size=N/A time=00:11:17.80 bitrate=N/A speed=17.8x    frame=16442 fps=425 q=-0.0 size=N/A time=00:11:25.76 bitrate=N/A speed=17.7x    frame=16683 fps=425 q=-0.0 size=N/A time=00:11:35.82 bitrate=N/A speed=17.7x    frame=16936 fps=426 q=-0.0 size=N/A time=00:11:46.37 bitrate=N/A speed=17.8x    frame=17187 fps=427 q=-0.0 size=N/A time=00:11:56.84 bitrate=N/A speed=17.8x    frame=17412 fps=427 q=-0.0 size=N/A time=00:12:06.22 bitrate=N/A speed=17.8x    frame=17615 fps=427 q=-0.0 size=N/A time=00:12:14.69 bitrate=N/A speed=17.8x    frame=17827 fps=427 q=-0.0 size=N/A time=00:12:23.53 bitrate=N/A speed=17.8x    frame=18031 fps=426 q=-0.0 size=N/A time=00:12:32.04 bitrate=N/A speed=17.8x    frame=18218 fps=425 q=-0.0 size=N/A time=00:12:39.84 bitrate=N/A speed=17.7x    frame=18427 fps=425 q=-0.0 size=N/A time=00:12:48.55 bitrate=N/A speed=17.7x    frame=18635 fps=425 q=-0.0 size=N/A time=00:12:57.23 bitrate=N/A speed=17.7x    frame=18855 fps=425 q=-0.0 size=N/A time=00:13:06.41 bitrate=N/A speed=17.7x    frame=19079 fps=425 q=-0.0 size=N/A time=00:13:15.75 bitrate=N/A speed=17.7x    frame=19293 fps=425 q=-0.0 size=N/A time=00:13:24.67 bitrate=N/A speed=17.7x    frame=19501 fps=425 q=-0.0 size=N/A time=00:13:33.35 bitrate=N/A speed=17.7x    frame=19711 fps=425 q=-0.0 size=N/A time=00:13:42.11 bitrate=N/A speed=17.7x    frame=19921 fps=424 q=-0.0 size=N/A time=00:13:50.87 bitrate=N/A speed=17.7x    frame=20146 fps=424 q=-0.0 size=N/A time=00:14:00.25 bitrate=N/A speed=17.7x    frame=20346 fps=424 q=-0.0 size=N/A time=00:14:08.59 bitrate=N/A speed=17.7x    frame=20564 fps=424 q=-0.0 size=N/A time=00:14:17.69 bitrate=N/A speed=17.7x    frame=20781 fps=424 q=-0.0 size=N/A time=00:14:26.74 bitrate=N/A speed=17.7x    frame=21026 fps=425 q=-0.0 size=N/A time=00:14:36.95 bitrate=N/A speed=17.7x    frame=21276 fps=425 q=-0.0 size=N/A time=00:14:47.38 bitrate=N/A speed=17.7x    frame=21498 fps=425 q=-0.0 size=N/A time=00:14:56.64 bitrate=N/A speed=17.7x    frame=21728 fps=425 q=-0.0 size=N/A time=00:15:06.23 bitrate=N/A speed=17.7x    frame=21953 fps=426 q=-0.0 size=N/A time=00:15:15.62 bitrate=N/A speed=17.8x    frame=22147 fps=425 q=-0.0 size=N/A time=00:15:23.71 bitrate=N/A speed=17.7x    frame=22355 fps=425 q=-0.0 size=N/A time=00:15:32.38 bitrate=N/A speed=17.7x    frame=22574 fps=425 q=-0.0 size=N/A time=00:15:41.52 bitrate=N/A speed=17.7x    frame=22762 fps=424 q=-0.0 size=N/A time=00:15:49.36 bitrate=N/A speed=17.7x    frame=22955 fps=424 q=-0.0 size=N/A time=00:15:57.41 bitrate=N/A speed=17.7x    frame=23147 fps=423 q=-0.0 size=N/A time=00:16:05.42 bitrate=N/A speed=17.7x    frame=23387 fps=424 q=-0.0 size=N/A time=00:16:15.43 bitrate=N/A speed=17.7x    frame=23601 fps=424 q=-0.0 size=N/A time=00:16:24.35 bitrate=N/A speed=17.7x    frame=23863 fps=424 q=-0.0 size=N/A time=00:16:35.28 bitrate=N/A speed=17.7x    frame=24119 fps=425 q=-0.0 size=N/A time=00:16:45.96 bitrate=N/A speed=17.7x    frame=24372 fps=426 q=-0.0 size=N/A time=00:16:56.51 bitrate=N/A speed=17.8x    frame=24639 fps=427 q=-0.0 size=N/A time=00:17:07.65 bitrate=N/A speed=17.8x    frame=24898 fps=427 q=-0.0 size=N/A time=00:17:18.45 bitrate=N/A speed=17.8x    frame=25152 fps=428 q=-0.0 size=N/A time=00:17:29.08 bitrate=N/A speed=17.8x    frame=25397 fps=428 q=-0.0 size=N/A time=00:17:39.26 bitrate=N/A speed=17.9x    frame=25663 fps=429 q=-0.0 size=N/A time=00:17:50.36 bitrate=N/A speed=17.9x    frame=25912 fps=429 q=-0.0 size=N/A time=00:18:00.74 bitrate=N/A speed=17.9x    frame=26140 fps=430 q=-0.0 size=N/A time=00:18:10.25 bitrate=N/A speed=17.9x    frame=26363 fps=429 q=-0.0 size=N/A time=00:18:19.55 bitrate=N/A speed=17.9x    frame=26598 fps=430 q=-0.0 size=N/A time=00:18:29.35 bitrate=N/A speed=17.9x    frame=26797 fps=429 q=-0.0 size=N/A time=00:18:37.65 bitrate=N/A speed=17.9x    frame=27007 fps=429 q=-0.0 size=N/A time=00:18:46.41 bitrate=N/A speed=17.9x    frame=27225 fps=429 q=-0.0 size=N/A time=00:18:55.50 bitrate=N/A speed=17.9x    frame=27460 fps=429 q=-0.0 size=N/A time=00:19:05.31 bitrate=N/A speed=17.9x    frame=27704 fps=430 q=-0.0 size=N/A time=00:19:15.48 bitrate=N/A speed=17.9x    frame=27931 fps=430 q=-0.0 size=N/A time=00:19:24.99 bitrate=N/A speed=17.9x    frame=28169 fps=430 q=-0.0 size=N/A time=00:19:34.88 bitrate=N/A speed=17.9x    frame=28413 fps=430 q=-0.0 size=N/A time=00:19:45.05 bitrate=N/A speed=17.9x    frame=28644 fps=431 q=-0.0 size=N/A time=00:19:54.69 bitrate=N/A speed=  18x    frame=28896 fps=431 q=-0.0 size=N/A time=00:20:05.20 bitrate=N/A speed=  18x    frame=29149 fps=431 q=-0.0 size=N/A time=00:20:15.75 bitrate=N/A speed=  18x    frame=29354 fps=431 q=-0.0 size=N/A time=00:20:24.30 bitrate=N/A speed=  18x    frame=29615 fps=432 q=-0.0 size=N/A time=00:20:35.19 bitrate=N/A speed=  18x    frame=29885 fps=432 q=-0.0 size=N/A time=00:20:46.45 bitrate=N/A speed=  18x    frame=30139 fps=433 q=-0.0 size=N/A time=00:20:57.04 bitrate=N/A speed=18.1x    frame=30349 fps=433 q=-0.0 size=N/A time=00:21:05.80 bitrate=N/A speed=  18x    frame=30589 fps=433 q=-0.0 size=N/A time=00:21:15.81 bitrate=N/A speed=18.1x    frame=30836 fps=433 q=-0.0 size=N/A time=00:21:26.11 bitrate=N/A speed=18.1x    frame=31077 fps=433 q=-0.0 size=N/A time=00:21:36.16 bitrate=N/A speed=18.1x    frame=31343 fps=434 q=-0.0 size=N/A time=00:21:47.26 bitrate=N/A speed=18.1x    frame=31569 fps=434 q=-0.0 size=N/A time=00:21:56.69 bitrate=N/A speed=18.1x    frame=31773 fps=434 q=-0.0 size=N/A time=00:22:05.19 bitrate=N/A speed=18.1x    frame=31999 fps=434 q=-0.0 size=N/A time=00:22:14.62 bitrate=N/A speed=18.1x    frame=32214 fps=434 q=-0.0 size=N/A time=00:22:23.59 bitrate=N/A speed=18.1x    frame=32437 fps=434 q=-0.0 size=N/A time=00:22:32.89 bitrate=N/A speed=18.1x    frame=32639 fps=433 q=-0.0 size=N/A time=00:22:41.31 bitrate=N/A speed=18.1x    frame=32861 fps=433 q=-0.0 size=N/A time=00:22:50.57 bitrate=N/A speed=18.1x    frame=33073 fps=433 q=-0.0 size=N/A time=00:22:59.41 bitrate=N/A speed=18.1x    frame=33290 fps=433 q=-0.0 size=N/A time=00:23:08.47 bitrate=N/A speed=18.1x    frame=33487 fps=433 q=-0.0 size=N/A time=00:23:16.68 bitrate=N/A speed=18.1x    frame=33656 fps=432 q=-0.0 size=N/A time=00:23:23.73 bitrate=N/A speed=  18x    frame=33843 fps=432 q=-0.0 size=N/A time=00:23:31.53 bitrate=N/A speed=  18x    frame=34039 fps=431 q=-0.0 size=N/A time=00:23:39.70 bitrate=N/A speed=  18x    frame=34248 fps=431 q=-0.0 size=N/A time=00:23:48.42 bitrate=N/A speed=  18x    frame=34469 fps=431 q=-0.0 size=N/A time=00:23:57.64 bitrate=N/A speed=  18x    [Parsed_psnr_2 @ 000002654b90a440] PSNR y:47.902585 u:49.821829 v:49.837569 average:48.455066 min:36.039770 max:inf
[out#0/null @ 000002654b8dd780] video:14857KiB audio:270728KiB subtitle:0KiB other streams:0KiB global headers:0KiB muxing overhead: unknown
frame=34577 fps=430 q=-0.0 Lsize=N/A time=00:24:02.14 bitrate=N/A speed=  18x    
